<svg width="20" height="20" viewBox="0 0 20 20" fill="none" xmlns="http://www.w3.org/2000/svg">
<path d="M10 19.5L10.1 19.6L10.2 19.4L10 19.5Z" fill="#252D35"/>
<path d="M9.8 19.3L9.9 19.5L10 19.4L9.8 19.3Z" fill="#252D35"/>
<path d="M19.7 1.7C19.4 1.5 19.1 1.2 18.8 1C18 0.5 16.6 0 14.6 0C12.6 0 11 0.5 10.2 1C10.1 1 10 1.1 10 1.2C9.9 1.1 9.8 1 9.8 1C9 0.5 7.6 0 5.5 0C3.4 0 2 0.5 1.2 1C0.9 1.2 0.6 1.4 0.3 1.7L0 2V19.7L1.5 18.9C2.6 18.3 4 18 5.5 18C7 18 8.2 18.3 9 18.8L9.7 19.3L9.9 19.5L10.1 19.3L10.8 18.8C11.6 18.2 12.8 18 14.3 18C15.8 18 17.2 18.3 18.3 18.9L19.8 19.7V2L19.7 1.7ZM2 16.5V2.9C2.1 2.9 2.2 2.8 2.2 2.7C2.8 2.4 3.9 2 5.5 2C7.1 2 8.2 2.4 8.8 2.7C8.9 2.7 9 2.8 9 2.9V16.6C8 16.2 6.8 16 5.5 16C4.2 16 3.1 16.2 2 16.5ZM18 16.5C16.9 16.2 15.8 16 14.5 16C13.2 16 12 16.2 11 16.6V2.9C11.1 2.9 11.2 2.8 11.2 2.7C11.8 2.4 12.9 2 14.5 2C16.1 2 17.2 2.4 17.8 2.7C17.9 2.7 18 2.8 18 2.9V16.5Z" fill="#252D35"/>
</svg>
