<svg width="280" height="58" viewBox="0 0 280 58" fill="none" xmlns="http://www.w3.org/2000/svg">
<path d="M61.8115 51.638C61.8115 50.2644 60.8605 49.3663 59.5926 49.3663C58.3775 49.3663 57.4266 50.2644 57.4266 51.638C57.4266 53.0116 58.3775 53.9097 59.5926 53.9097C60.8605 53.9097 61.8115 53.0116 61.8115 51.638ZM63.0266 51.638C63.0266 53.5927 61.653 54.9135 59.7511 54.9135C58.853 54.9135 58.0077 54.5437 57.4794 53.8569V57.1852H56.3171V48.4153H57.4266V49.472C57.9549 48.7323 58.8002 48.4153 59.7511 48.4153C61.653 48.3625 63.0266 49.6833 63.0266 51.638Z" fill="#252D35"/>
<path d="M68.5737 52.9059V52.0078H66.7775C65.6152 52.0078 65.2983 52.4833 65.2983 53.0116C65.2983 53.6456 65.8266 54.0682 66.7247 54.0682C67.5699 54.0682 68.3096 53.6456 68.5737 52.9059ZM69.7888 51.0041V54.9135H68.6794V54.0682C68.3096 54.6493 67.5699 54.9663 66.5662 54.9663C65.0869 54.9663 64.136 54.1739 64.136 53.0644C64.136 52.0078 64.8228 51.1625 66.7775 51.1625H68.6266V50.9512C68.6266 49.9475 68.0454 49.4192 66.8832 49.4192C66.0907 49.4192 65.2983 49.6833 64.8228 50.1059L64.3473 49.2078C65.0341 48.6795 65.985 48.3625 67.0416 48.3625C68.785 48.3625 69.7888 49.2078 69.7888 51.0041Z" fill="#252D35"/>
<path d="M76.6569 53.0116C76.6569 54.1739 75.3361 54.9663 73.6455 54.9663C72.6946 54.9663 71.7437 54.7022 71.004 54.2267L71.3738 53.3286C72.0078 53.7512 72.8531 53.9625 73.6455 53.9625C74.755 53.9625 75.4946 53.5399 75.4946 52.9059C75.4946 52.3248 74.9135 51.955 73.9625 51.955H72.7474V51.1097H73.8569C74.7021 51.1097 75.2833 50.7927 75.2833 50.2644C75.2833 49.6833 74.5965 49.3663 73.6455 49.3663C72.9587 49.3663 72.3248 49.5248 71.5852 49.8418L71.2682 48.9437C72.1135 48.521 72.9059 48.3625 73.7512 48.3625C75.3361 48.3625 76.4984 49.0493 76.4984 50.1059C76.4984 50.7399 76.0229 51.2682 75.3361 51.5324C76.1814 51.7437 76.6569 52.272 76.6569 53.0116Z" fill="#252D35"/>
<path d="M79.2457 53.8569H82.891V49.472H80.0909L80.0381 50.6871C79.9853 52.0079 79.8268 53.3286 79.2457 53.8569ZM85.057 53.8569V56.3928H83.9476V54.9135H78.506V56.3928H77.3966V53.8569H77.7136C78.6645 53.8041 78.823 52.2192 78.8759 50.6343L78.9815 48.4683H84.0532V53.8569H85.057Z" fill="#252D35"/>
<path d="M91.1324 53.0118C91.1324 52.325 90.7097 52.008 89.7588 52.008H87.8041V53.9627H89.706C90.6569 53.9627 91.1324 53.6985 91.1324 53.0118ZM87.7513 51.2155H89.4946C90.3928 51.2155 90.8682 50.8985 90.8682 50.2646C90.8682 49.6306 90.3928 49.3665 89.4946 49.3665H87.7513V51.2155ZM92.2946 53.1174C92.2946 54.2268 91.4494 54.9136 89.706 54.9136H86.589V48.4155H89.6003C91.1324 48.4155 92.0305 48.9967 92.0305 50.0533C92.0305 50.7401 91.6607 51.2684 90.9739 51.4797C91.9248 51.7438 92.2946 52.2721 92.2946 53.1174Z" fill="#252D35"/>
<path d="M94.1438 48.4155H95.3589V53.1174L99.3212 48.4155H100.378V54.8608H99.2155V50.1589L95.2532 54.8608H94.1438V48.4155Z" fill="#252D35"/>
<path d="M108.619 52.1665H107.351V54.8608H106.136V52.1665H104.868L103.125 54.8608H101.698L103.917 51.5325L101.857 48.4155H103.125L104.868 51.1627H106.136V48.4155H107.351V51.1627H108.619L110.363 48.4155H111.63L109.57 51.5325L111.789 54.8608H110.415L108.619 52.1665Z" fill="#252D35"/>
<path d="M113.11 48.4155H114.272V51.1627H117.97V48.4155H119.185V54.8608H117.97V52.1665H114.272V54.8608H113.11V48.4155Z" fill="#252D35"/>
<path d="M127.902 48.4155H129.064V54.8608H127.902V48.4155ZM125.736 52.6948C125.736 51.8495 125.208 51.4797 124.098 51.4797H122.619V54.0155H124.098C125.155 54.0155 125.736 53.5929 125.736 52.6948ZM126.951 52.6948C126.951 54.0684 125.947 54.8608 124.204 54.8608H121.457V48.4155H122.619V50.5816H124.362C126.053 50.6344 126.951 51.374 126.951 52.6948Z" fill="#252D35"/>
<path d="M131.97 51.2155H136.144C136.038 50.1589 135.193 49.3665 134.03 49.3665C132.921 49.3665 132.076 50.1061 131.97 51.2155ZM137.253 52.0608H131.97C132.129 53.1702 133.027 53.9627 134.347 53.9627C135.087 53.9627 135.774 53.6985 136.249 53.1702L136.883 53.9099C136.302 54.5967 135.404 54.9665 134.295 54.9665C132.181 54.9665 130.808 53.5929 130.808 51.691C130.808 49.7891 132.181 48.4155 134.083 48.4155C135.985 48.4155 137.306 49.7363 137.306 51.7438C137.253 51.7967 137.253 51.9552 137.253 52.0608Z" fill="#252D35"/>
<path d="M141.796 51.638C141.796 49.7361 143.223 48.3625 145.23 48.3625C146.393 48.3625 147.344 48.838 147.872 49.7361L146.974 50.3173C146.551 49.6833 145.917 49.4192 145.23 49.4192C143.962 49.4192 143.011 50.3173 143.011 51.6908C143.011 53.0644 143.962 53.9625 145.23 53.9625C145.917 53.9625 146.604 53.6456 146.974 53.0644L147.872 53.6456C147.344 54.5437 146.393 55.0192 145.23 55.0192C143.223 54.9663 141.796 53.5927 141.796 51.638Z" fill="#252D35"/>
<path d="M154.159 49.4721H151.781V54.8608H150.619V49.4721H148.242V48.4155H154.159V49.4721Z" fill="#252D35"/>
<path d="M155.691 51.2155H159.864C159.759 50.1589 158.913 49.3665 157.751 49.3665C156.642 49.3665 155.796 50.1061 155.691 51.2155ZM160.974 52.0608H155.691C155.849 53.1702 156.747 53.9627 158.068 53.9627C158.808 53.9627 159.494 53.6985 159.97 53.1702L160.604 53.9099C160.023 54.5967 159.125 54.9665 158.015 54.9665C155.902 54.9665 154.528 53.5929 154.528 51.691C154.528 49.7891 155.902 48.4155 157.804 48.4155C159.706 48.4155 161.027 49.7363 161.027 51.7438C160.974 51.7967 160.974 51.9552 160.974 52.0608Z" fill="#252D35"/>
<path d="M162.823 48.4155H163.985V51.1627H167.683V48.4155H168.846V54.8608H167.683V52.1665H163.985V54.8608H162.823V48.4155Z" fill="#252D35"/>
<path d="M177.615 48.4155H178.778V54.8608H177.615V48.4155ZM175.449 52.6948C175.449 51.8495 174.921 51.4797 173.812 51.4797H172.332V54.0155H173.812C174.868 54.0155 175.449 53.5929 175.449 52.6948ZM176.612 52.6948C176.612 54.0684 175.608 54.8608 173.864 54.8608H171.117V48.4155H172.279V50.5816H174.023C175.766 50.6344 176.612 51.374 176.612 52.6948Z" fill="#252D35"/>
<path d="M184.378 48.4155H185.54V53.1174L189.555 48.4155H190.612V54.8608H189.449V50.1589L185.487 54.8608H184.378V48.4155Z" fill="#252D35"/>
<path d="M202.234 48.4155V54.8608H201.072V49.4721H197.374V54.8608H196.212V48.4155H202.234Z" fill="#252D35"/>
<path d="M205.087 51.2155H209.261C209.155 50.1589 208.31 49.3665 207.147 49.3665C206.038 49.3665 205.246 50.1061 205.087 51.2155ZM210.37 52.0608H205.087C205.246 53.1702 206.144 53.9627 207.464 53.9627C208.204 53.9627 208.838 53.6985 209.366 53.1702L210 53.9099C209.419 54.5967 208.521 54.9665 207.412 54.9665C205.298 54.9665 203.925 53.5929 203.925 51.691C203.925 49.7891 205.298 48.4155 207.2 48.4155C209.102 48.4155 210.423 49.7363 210.423 51.7438C210.423 51.7967 210.37 51.9552 210.37 52.0608Z" fill="#252D35"/>
<path d="M217.766 51.638C217.766 50.2644 216.815 49.3663 215.547 49.3663C214.332 49.3663 213.381 50.2644 213.381 51.638C213.381 53.0116 214.332 53.9097 215.547 53.9097C216.815 53.9097 217.766 53.0116 217.766 51.638ZM218.981 51.638C218.981 53.5927 217.608 54.9135 215.706 54.9135C214.808 54.9135 213.963 54.5437 213.434 53.8569V57.1852H212.272V48.4153H213.381V49.472C213.91 48.7323 214.755 48.4153 215.706 48.4153C217.608 48.3625 218.981 49.6833 218.981 51.638Z" fill="#252D35"/>
<path d="M221.253 51.2155H225.427C225.321 50.1589 224.476 49.3665 223.314 49.3665C222.204 49.3665 221.359 50.1061 221.253 51.2155ZM226.536 52.0608H221.253C221.412 53.1702 222.31 53.9627 223.631 53.9627C224.37 53.9627 225.004 53.6985 225.532 53.1702L226.166 53.9099C225.585 54.5967 224.687 54.9665 223.578 54.9665C221.465 54.9665 220.091 53.5929 220.091 51.691C220.091 49.7891 221.465 48.4155 223.366 48.4155C225.268 48.4155 226.589 49.7363 226.589 51.7438C226.536 51.7967 226.536 51.9552 226.536 52.0608Z" fill="#252D35"/>
<path d="M233.193 49.4721H229.548V54.8608H228.385V48.4155H233.193V49.4721Z" fill="#252D35"/>
<path d="M239.057 51.638C239.057 50.2644 238.106 49.3663 236.891 49.3663C235.623 49.3663 234.672 50.2644 234.672 51.638C234.672 53.0116 235.623 53.9097 236.891 53.9097C238.159 53.9097 239.057 53.0116 239.057 51.638ZM233.51 51.638C233.51 49.7361 234.936 48.3625 236.891 48.3625C238.846 48.3625 240.272 49.7361 240.272 51.638C240.272 53.5399 238.846 54.9135 236.891 54.9135C234.936 54.9663 233.51 53.5927 233.51 51.638Z" fill="#252D35"/>
<path d="M247.51 51.638C247.51 50.2644 246.559 49.3663 245.291 49.3663C244.076 49.3663 243.125 50.2644 243.125 51.638C243.125 53.0116 244.076 53.9097 245.291 53.9097C246.559 53.9097 247.51 53.0116 247.51 51.638ZM248.725 51.638C248.725 53.5927 247.351 54.9135 245.449 54.9135C244.551 54.9135 243.706 54.5437 243.178 53.8569V57.1852H242.015V48.4153H243.125V49.472C243.653 48.7323 244.498 48.4153 245.449 48.4153C247.351 48.3625 248.725 49.6833 248.725 51.638Z" fill="#252D35"/>
<path d="M255.381 51.638C255.381 50.2644 254.43 49.3663 253.215 49.3663C251.947 49.3663 250.996 50.2644 250.996 51.638C250.996 53.0116 251.947 53.9097 253.215 53.9097C254.483 53.9097 255.381 53.0116 255.381 51.638ZM249.834 51.638C249.834 49.7361 251.261 48.3625 253.215 48.3625C255.17 48.3625 256.596 49.7361 256.596 51.638C256.596 53.5399 255.17 54.9135 253.215 54.9135C251.261 54.9663 249.834 53.5927 249.834 51.638Z" fill="#252D35"/>
<path d="M259.027 53.8569H262.672V49.472H259.872L259.819 50.6871C259.766 52.0079 259.608 53.3286 259.027 53.8569ZM264.838 53.8569V56.3928H263.781V54.9135H258.34V56.3928H257.23V53.8569H257.6C258.551 53.8041 258.71 52.2192 258.763 50.6343L258.868 48.4683H263.94V53.8569H264.838Z" fill="#252D35"/>
<path d="M268.906 52.1665H267.585V54.8608H266.423V48.4155H267.585V51.1627H268.959L271.072 48.4155H272.34L269.857 51.5325L272.498 54.8608H271.125L268.906 52.1665Z" fill="#252D35"/>
<path d="M273.766 48.4155H274.928V53.1174L278.891 48.4155H280V54.8608H278.785V50.1589L274.823 54.8608H273.766V48.4155Z" fill="#252D35"/>
<path d="M56.4229 1.76636H74.6493V5.25315H60.0681V16.5588H74.6493V20.0456H60.0681V37.6909H56.4229V1.76636Z" fill="#252D35"/>
<path d="M99.7437 4.35505C97.0493 4.35505 94.5135 5.04185 92.0833 6.41543C89.6531 7.78901 87.804 9.6909 86.4305 12.0154C85.0569 14.34 84.4229 16.9815 84.4229 19.8871C84.4229 24.1664 85.9022 27.7588 88.9135 30.7173C91.9248 33.6758 95.5173 35.1551 99.7437 35.1551C102.544 35.1551 105.185 34.4683 107.563 33.1475C109.94 31.7739 111.842 29.9249 113.163 27.6003C114.483 25.2758 115.17 22.6343 115.17 19.7815C115.17 16.9286 114.483 14.34 113.163 12.0154C111.842 9.6909 109.94 7.84185 107.457 6.46826C105.027 5.04185 102.438 4.35505 99.7437 4.35505ZM99.5324 0.81543C105.027 0.81543 109.676 2.61166 113.374 6.25694C117.072 9.90222 118.921 14.34 118.921 19.6758C118.921 24.9588 117.072 29.3966 113.374 33.0947C109.676 36.74 105.132 38.589 99.8493 38.589C94.4606 38.589 89.9173 36.74 86.1663 33.0947C82.4682 29.4494 80.6191 25.0117 80.6191 19.8343C80.6191 16.4003 81.4644 13.1777 83.155 10.2192C84.8456 7.26071 87.1701 4.93618 90.0757 3.29845C92.9814 1.66071 96.1512 0.81543 99.5324 0.81543Z" fill="#252D35"/>
<path d="M127.532 1.76636H131.178V34.2569H145.125V37.6909H127.532V1.76636Z" fill="#252D35"/>
<path d="M194.257 1.29102H190.506V38.4835H194.257V1.29102Z" fill="#252D35"/>
<path d="M277.676 7.78916L274.876 10.4307C272.868 8.47596 270.649 6.94388 268.219 5.94011C265.789 4.93633 263.464 4.40803 261.14 4.40803C258.287 4.40803 255.593 5.09482 253.004 6.46841C250.415 7.84199 248.408 9.74388 246.981 12.1212C245.555 14.4986 244.868 16.9816 244.868 19.6231C244.868 22.3175 245.608 24.9061 247.087 27.3363C248.566 29.7665 250.574 31.6684 253.163 33.0948C255.751 34.4684 258.604 35.208 261.668 35.208C265.419 35.208 268.589 34.1514 271.178 32.091C273.766 30.0307 275.298 27.2835 275.774 23.9552H264.151V20.4684H279.842C279.789 26.0156 278.151 30.4533 274.823 33.7288C271.495 37.0043 267.11 38.642 261.563 38.642C254.853 38.642 249.517 36.3703 245.608 31.8269C242.597 28.3401 241.064 24.325 241.064 19.7288C241.064 16.3477 241.91 13.1778 243.653 10.2194C245.397 7.26086 247.774 4.98916 250.785 3.35143C253.797 1.71369 257.23 0.868408 261.034 0.868408C264.098 0.868408 267.004 1.39671 269.751 2.50614C272.393 3.61558 275.087 5.35897 277.676 7.78916Z" fill="#252D35"/>
<path d="M204.136 5.67588V1.44946H204.981L233.668 34.7853V38.5891H232.823L204.136 5.67588Z" fill="#252D35"/>
<path d="M233.668 5.78154V29.8193L229.917 25.4872V1.44946L233.668 5.78154Z" fill="#252D35"/>
<path d="M204.136 34.0458V10.6948L208.046 15.1854V38.5892L204.136 34.0458Z" fill="#252D35"/>
<path d="M179.834 9.37424C177.827 6.36292 175.08 4.24972 171.54 3.03462C169.11 2.18934 165.148 1.71387 159.706 1.71387H152.574L155.691 5.25349H158.28C163.51 5.25349 167.261 5.57047 169.532 6.25726C172.544 7.15538 174.921 8.84594 176.612 11.329C178.302 13.812 179.147 16.7705 179.147 20.2044C179.147 23.5327 178.355 26.3327 176.823 28.6044C175.238 30.8761 173.125 32.461 170.378 33.3592C168.423 33.9931 164.936 34.3101 159.917 34.3101H155.691V10.5893L152.204 6.62707V37.7441H163.774C168.317 37.7441 171.857 37.1101 174.34 35.7893C176.876 34.4686 178.883 32.461 180.468 29.7139C182.053 26.9667 182.846 23.7969 182.846 20.2044C182.793 16.0308 181.842 12.4384 179.834 9.37424Z" fill="#252D35"/>
<path d="M1.16225 52.9581C1.37357 53.1694 1.63772 53.275 1.9547 53.275C2.27168 53.275 2.53583 53.1694 2.74715 52.9581C2.95847 52.7467 3.06413 52.4826 3.06413 52.1128C3.06413 51.7958 2.95847 51.4788 2.74715 51.2675C2.53583 51.0562 2.27168 50.9505 1.9547 50.9505C1.63772 50.9505 1.37357 51.0562 1.16225 51.2675C0.950926 51.4788 0.845266 51.743 0.845266 52.1128C0.845266 52.4826 0.950926 52.7467 1.16225 52.9581ZM3.27546 53.4335C2.90564 53.8033 2.483 53.9618 2.00753 53.9618C1.53206 53.9618 1.05659 53.8033 0.739606 53.4335C0.369794 53.0637 0.211304 52.6411 0.211304 52.1656C0.211304 51.6373 0.369794 51.2147 0.739606 50.8977C1.10942 50.5279 1.53206 50.3694 2.00753 50.3694C2.483 50.3694 2.95847 50.5279 3.27546 50.8977C3.64527 51.2675 3.80376 51.6901 3.80376 52.1656C3.80376 52.6939 3.59244 53.1166 3.27546 53.4335Z" fill="#252D35"/>
<path d="M6.0755 53.9625C5.5472 53.9625 5.12455 53.804 4.75474 53.4342C4.43776 53.0644 4.22644 52.6418 4.22644 52.1135C4.22644 51.5852 4.38493 51.1625 4.75474 50.7927C5.07172 50.4229 5.5472 50.2644 6.0755 50.2644C6.39248 50.2644 6.70946 50.3172 6.97361 50.4757C7.23776 50.6342 7.44908 50.8455 7.60757 51.0569L7.02644 51.4267C6.92078 51.2682 6.81512 51.1625 6.65663 51.0569C6.49814 50.9512 6.33965 50.8984 6.12833 50.8984C5.81135 50.8984 5.49436 51.004 5.28304 51.2153C5.07172 51.4267 4.96606 51.6908 4.96606 52.0606C4.96606 52.3776 5.07172 52.6946 5.28304 52.9059C5.49436 53.1172 5.75852 53.2229 6.12833 53.2229C6.33965 53.2229 6.49814 53.1701 6.65663 53.0644C6.81512 52.9587 6.92078 52.8531 7.02644 52.6946L7.55474 53.1701C7.39625 53.4342 7.18493 53.6455 6.92078 53.7512C6.65663 53.9097 6.39248 53.9625 6.0755 53.9625Z" fill="#252D35"/>
<path d="M10.0907 50.4229H10.7775V53.9096H10.0907V52.4832H8.76992V53.9096H8.08313V50.4229H8.76992V51.7964H10.0907V50.4229Z" fill="#252D35"/>
<path d="M12.4152 52.9588C12.6265 53.1701 12.8906 53.2758 13.2076 53.2758C13.5246 53.2758 13.7887 53.1701 14.0001 52.9588C14.2114 52.7475 14.317 52.4833 14.317 52.1135C14.317 51.7965 14.2114 51.4796 14.0001 51.2682C13.7887 51.0569 13.5246 50.9513 13.2076 50.9513C12.8906 50.9513 12.6265 51.0569 12.4152 51.2682C12.2038 51.4796 12.0982 51.7437 12.0982 52.1135C12.0982 52.4833 12.2038 52.7475 12.4152 52.9588ZM14.4755 53.4343C14.1057 53.8041 13.6831 53.9626 13.2076 53.9626C12.7321 53.9626 12.2567 53.8041 11.9397 53.4343C11.5699 53.0645 11.4114 52.6418 11.4114 52.1663C11.4114 51.638 11.5699 51.2154 11.9397 50.8984C12.3095 50.5286 12.7321 50.3701 13.2076 50.3701C13.6831 50.3701 14.1585 50.5286 14.4755 50.8984C14.8453 51.2682 15.0038 51.6909 15.0038 52.1663C15.0038 52.6946 14.8453 53.1173 14.4755 53.4343Z" fill="#252D35"/>
<path d="M17.1169 53.2757C17.2226 53.2757 17.3283 53.2229 17.3811 53.17C17.4339 53.1172 17.4868 53.0115 17.4868 52.853C17.4868 52.7474 17.4339 52.6417 17.3811 52.5361C17.3283 52.4832 17.2226 52.4304 17.1169 52.4304H16.3245V53.2757H17.1169ZM17.0113 51.0568H16.3245V51.8493H17.0113C17.1169 51.8493 17.2226 51.7964 17.2754 51.7436C17.3283 51.6908 17.3811 51.5851 17.3811 51.4795C17.3811 51.3738 17.3283 51.2681 17.2754 51.2153C17.2226 51.1096 17.1169 51.0568 17.0113 51.0568ZM17.7509 52.1134C18.0679 52.2719 18.2264 52.5361 18.2264 52.9059C18.2264 53.2229 18.1207 53.4342 17.9094 53.6455C17.6981 53.8568 17.4339 53.9096 17.1169 53.9096H15.6377V50.4229H17.0113C17.3283 50.4229 17.5396 50.5285 17.7509 50.687C17.9622 50.8455 18.0679 51.1096 18.0679 51.3738C18.0679 51.6908 17.9622 51.9021 17.7509 52.1134Z" fill="#252D35"/>
<path d="M19.6529 52.6417H20.6038L20.1283 51.2153L19.6529 52.6417ZM21.0264 53.9096L20.8151 53.2757H19.4415L19.2302 53.9096H18.4906L19.7057 50.4229H20.551L21.7661 53.9096H21.0264Z" fill="#252D35"/>
<path d="M24.249 50.4229H24.9358V53.9096H24.249V52.4832H22.9282V53.9096H22.2415V50.4229H22.9282V51.7964H24.249V50.4229Z" fill="#252D35"/>
<path d="M26.5736 52.9588C26.7849 53.1701 27.0491 53.2758 27.3661 53.2758C27.683 53.2758 27.9472 53.1701 28.1585 52.9588C28.3698 52.7475 28.4755 52.4833 28.4755 52.1135C28.4755 51.7965 28.3698 51.4796 28.1585 51.2682C27.9472 51.0569 27.683 50.9513 27.3661 50.9513C27.0491 50.9513 26.7849 51.0569 26.5736 51.2682C26.3623 51.4796 26.2566 51.7437 26.2566 52.1135C26.2038 52.4833 26.3094 52.7475 26.5736 52.9588ZM28.634 53.4343C28.2642 53.8041 27.8415 53.9626 27.3661 53.9626C26.8377 53.9626 26.4151 53.8041 26.0981 53.4343C25.7283 53.0645 25.5698 52.6418 25.5698 52.1663C25.5698 51.638 25.7283 51.2154 26.0981 50.8984C26.4679 50.5286 26.8906 50.3701 27.3661 50.3701C27.8944 50.3701 28.317 50.5286 28.634 50.8984C29.0038 51.2682 29.1623 51.6909 29.1623 52.1663C29.1623 52.6946 29.0038 53.1173 28.634 53.4343Z" fill="#252D35"/>
<path d="M32.6492 53.2757C32.7548 53.2757 32.8605 53.2229 32.9133 53.17C32.9661 53.1172 33.019 53.0115 33.019 52.853C33.019 52.7474 32.9661 52.6417 32.9133 52.5361C32.8605 52.4832 32.7548 52.4304 32.6492 52.4304H31.8567V53.2757H32.6492ZM32.5435 51.0568H31.8567V51.8493H32.5435C32.6492 51.8493 32.7548 51.7964 32.8077 51.7436C32.8605 51.6908 32.9133 51.5851 32.9133 51.4795C32.9133 51.3738 32.8605 51.2681 32.8077 51.2153C32.7548 51.1096 32.6492 51.0568 32.5435 51.0568ZM33.2831 52.1134C33.6001 52.2719 33.7586 52.5361 33.7586 52.9059C33.7586 53.2229 33.6529 53.4342 33.4416 53.6455C33.2303 53.8568 32.9661 53.9096 32.6492 53.9096H31.1699V50.4229H32.5435C32.8605 50.4229 33.0718 50.5285 33.2831 50.687C33.4945 50.8455 33.6001 51.1096 33.6001 51.3738C33.6001 51.6908 33.4945 51.9021 33.2831 52.1134Z" fill="#252D35"/>
<path d="M35.5019 53.9098V53.3815L36.717 52.1664C36.9812 51.9023 37.1397 51.6381 37.1397 51.4796C37.1397 51.3212 37.0868 51.2155 37.034 51.1627C36.9283 51.057 36.8227 51.057 36.717 51.057C36.4529 51.057 36.2415 51.2155 36.1359 51.4796L35.4491 51.057C35.5548 50.7929 35.7132 50.6344 35.9246 50.5287C36.1359 50.423 36.3472 50.3174 36.6114 50.3174C36.9283 50.3174 37.1925 50.423 37.4038 50.6344C37.6151 50.8457 37.7208 51.1098 37.7208 51.4268C37.7208 51.7966 37.5095 52.1664 37.1397 52.5363L36.4529 53.223H37.7736V53.9098H35.5019Z" fill="#252D35"/>
<path d="M39.1472 53.0116C39.2528 53.2229 39.4641 53.3286 39.6755 53.3286C39.8868 53.3286 40.0981 53.2229 40.2038 53.0116C40.3094 52.8003 40.3623 52.5362 40.3623 52.1663C40.3623 51.7965 40.3094 51.5324 40.2038 51.3211C40.0981 51.1097 39.8868 51.0041 39.6755 51.0041C39.4641 51.0041 39.2528 51.1097 39.1472 51.3211C39.0415 51.5324 38.9887 51.7965 38.9887 52.1663C38.9358 52.5362 38.9887 52.8003 39.1472 53.0116ZM39.6755 53.9626C39.2528 53.9626 38.883 53.8041 38.6717 53.4871C38.4075 53.1701 38.3019 52.6946 38.3019 52.1663C38.3019 51.638 38.4075 51.1626 38.6717 50.8456C38.9358 50.5286 39.2528 50.3701 39.6755 50.3701C40.0981 50.3701 40.4679 50.5286 40.6792 50.8456C40.9434 51.1626 41.0491 51.638 41.0491 52.1663C41.0491 52.6946 40.9434 53.1701 40.6792 53.4871C40.4679 53.8041 40.0981 53.9626 39.6755 53.9626Z" fill="#252D35"/>
<path d="M42.4228 53.0116C42.5285 53.2229 42.7398 53.3286 42.9511 53.3286C43.1624 53.3286 43.3737 53.2229 43.4794 53.0116C43.5851 52.8003 43.6379 52.5362 43.6379 52.1663C43.6379 51.7965 43.5851 51.5324 43.4794 51.3211C43.3737 51.1097 43.1624 51.0041 42.9511 51.0041C42.7398 51.0041 42.5285 51.1097 42.4228 51.3211C42.3171 51.5324 42.2643 51.7965 42.2643 52.1663C42.2115 52.5362 42.2643 52.8003 42.4228 53.0116ZM42.9511 53.9626C42.5285 53.9626 42.1586 53.8041 41.9473 53.4871C41.6832 53.1701 41.5775 52.6946 41.5775 52.1663C41.5775 51.638 41.6832 51.1626 41.9473 50.8456C42.2115 50.5286 42.5285 50.3701 42.9511 50.3701C43.3737 50.3701 43.7436 50.5286 43.9549 50.8456C44.219 51.1626 44.3247 51.638 44.3247 52.1663C44.3247 52.6946 44.219 53.1701 43.9549 53.4871C43.7436 53.8041 43.3737 53.9626 42.9511 53.9626Z" fill="#252D35"/>
<path d="M46.2792 51.8494C46.4905 51.9022 46.7018 52.0607 46.8603 52.2192C47.0188 52.3777 47.0716 52.589 47.0716 52.8532C47.0716 53.223 46.966 53.4871 46.7018 53.6985C46.4377 53.9098 46.1735 54.0155 45.8037 54.0155C45.5396 54.0155 45.2754 53.9626 45.0641 53.8041C44.8528 53.6985 44.6943 53.4871 44.5886 53.2758L45.1698 52.9588C45.2754 53.223 45.4339 53.3815 45.8037 53.3815C45.9622 53.3815 46.1207 53.3287 46.2264 53.2758C46.332 53.1702 46.3849 53.0645 46.3849 52.906C46.3849 52.7475 46.332 52.6419 46.2264 52.5362C46.1207 52.4305 46.015 52.4305 45.8037 52.4305H45.6452L45.3811 52.0079L46.0679 51.1098H44.6943V50.4758H46.9132V51.057L46.2792 51.8494Z" fill="#252D35"/>
<path d="M1.95472 46.0908H18.6491L8.50566 31.3511V10.5361L33.0717 46.0908H44.7472L33.4943 29.8719L44.6943 25.9625V16.8757L28.4226 22.5285L23.4038 15.2908L44.6943 7.84171V3.19266H1.90189V46.0908H1.95472ZM46.6491 47.9926H0V1.29077H46.6491V47.9926Z" fill="#252D35"/>
</svg>
